<?xml version="1.0" standalone="no"?>
<!DOCTYPE svg PUBLIC "-//W3C//DTD SVG 20010904//EN"
 "http://www.w3.org/TR/2001/REC-SVG-20010904/DTD/svg10.dtd">
<svg version="1.0" xmlns="http://www.w3.org/2000/svg"
 width="220.000000pt" height="220.000000pt" viewBox="0 0 220.000000 220.000000"
 preserveAspectRatio="xMidYMid meet">
<metadata>
Created by potrace 1.14, written by Peter Selinger 2001-2017
</metadata>
<g transform="translate(0.000000,220.000000) scale(0.100000,-0.100000)"
fill="#000000" stroke="none">
<path d="M685 1653 c-77 -28 -131 -69 -188 -145 -39 -52 -385 -741 -393 -783
-20 -108 76 -207 188 -192 79 11 97 36 271 380 100 198 175 335 199 362 54 61
144 104 235 112 42 3 84 1 102 -5 30 -11 31 -10 20 11 -33 61 -104 159 -139
191 -87 79 -196 104 -295 69z"/>
<path d="M1865 1649 c-45 -22 -68 -48 -111 -127 -193 -353 -272 -493 -295
-521 l-26 -35 46 -38 c57 -47 118 -67 194 -62 102 6 107 12 273 312 140 253
148 270 149 323 0 43 -5 63 -25 92 -44 64 -136 89 -205 56z"/>
<path d="M979 1319 c-59 -9 -106 -31 -147 -69 -29 -26 -31 -30 -14 -39 9 -5
83 -123 162 -262 159 -278 206 -336 307 -386 74 -36 174 -39 243 -6 74 34 154
121 202 219 l15 31 -32 -7 c-57 -13 -142 -3 -198 23 -94 44 -141 105 -291 374
-31 56 -60 104 -64 107 -7 4 -75 16 -117 20 -11 1 -41 -1 -66 -5z"/>
<path d="M732 976 c-71 -24 -116 -97 -105 -168 27 -175 279 -175 306 0 18 111
-93 204 -201 168z"/>
</g>
</svg>
